General
Complete name                    : E:\\MOVIES\\HINDI\\Wake Up Sid [2009] [337MB] Dvd-Rip_By [~SAIF~] [~TDT~].mkv
Format                           : Matroska
File size                        : 337 MiB
Duration                         : 2h 20mn
Overall bit rate                 : 337 Kbps
Movie name                       : Avidemux
Writing application              : Lavf52.61.0
Writing library                  : Lavf52.61.0

Video
ID                               : 1
Format                           : MPEG-4 Visual
Format profile                   : Advanced Simple@L5
Format settings, BVOP            : Yes
Format settings, QPel            : No
Format settings, GMC             : No warppoints
Format settings, Matrix          : Default (H.263)
Codec ID                         : V_MPEG4/ISO/ASP
Codec ID/Info                    : Advanced Simple Profile
Duration                         : 2h 20mn
Bit rate                         : 266 Kbps
Width                            : 592 pixels
Height                           : 300 pixels
Display aspect ratio             : 1.973
Frame rate                       : 23.976 fps
Color space                      : YUV
Chroma subsampling               : 4:2:0
Bit depth                        : 8 bits
Scan type                        : Progressive
Bits/(Pixel*Frame)               : 0.062
Stream size                      : 266 MiB (79%)
Writing library                  : XviD 1.2.1 (UTC 2008-12-04)

Audio
ID                               : 2
Format                           : MPEG Audio
Format version                   : Version 1
Format profile                   : Layer 3
Codec ID                         : A_MPEG/L3
Codec ID/Hint                    : MP3
Duration                         : 2h 20mn
Bit rate mode                    : Constant
Bit rate                         : 64.0 Kbps
Channel(s)                       : 2 channels
Sampling rate                    : 48.0 KHz
Video delay                      : -42ms
Stream size                      : 64.1 MiB (19%)